<svg width="48" height="48" viewBox="0 0 48 48" fill="none" xmlns="http://www.w3.org/2000/svg">
<path d="M30.5 42C30.5 42.2454 30.3727 42.6588 29.7475 43.2131C29.1241 43.7658 28.1363 44.3322 26.787 44.8381C24.0995 45.846 20.286 46.5 16 46.5C11.714 46.5 7.90052 45.846 5.21298 44.8381C3.86367 44.3322 2.87593 43.7658 2.25247 43.2131C1.62726 42.6588 1.5 42.2454 1.5 42C1.5 41.7546 1.62726 41.3412 2.25247 40.7869C2.87593 40.2342 3.86367 39.6678 5.21298 39.1619C7.90052 38.154 11.714 37.5 16 37.5C20.286 37.5 24.0995 38.154 26.787 39.1619C28.1363 39.6678 29.1241 40.2342 29.7475 40.7869C30.3727 41.3412 30.5 41.7546 30.5 42Z" stroke="#152C5B" stroke-width="3"/>
<path d="M28.5 14.0127C28.5 19.0936 26.5876 25.8621 23.9012 31.3838C22.5627 34.1348 21.0712 36.4941 19.6003 38.1401C18.0654 39.8576 16.823 40.5 16 40.5C15.177 40.5 13.9346 39.8576 12.3997 38.1401C10.9288 36.4941 9.43729 34.1348 8.09883 31.3838C5.41236 25.8621 3.5 19.0936 3.5 14.0127C3.5 11.1905 4.86851 8.04115 7.1914 5.57983C9.5031 3.13036 12.6288 1.5 16 1.5C19.3712 1.5 22.4969 3.13036 24.8086 5.57983C27.1315 8.04115 28.5 11.1905 28.5 14.0127Z" fill="white" stroke="#152C5B" stroke-width="3"/>
<circle cx="16" cy="14" r="4.5" stroke="#FF498B" stroke-width="3"/>
</svg>
