<svg width="48" height="48" viewBox="0 0 48 48" fill="none" xmlns="http://www.w3.org/2000/svg">
<mask id="path-1-inside-1" fill="white">
<path fill-rule="evenodd" clip-rule="evenodd" d="M19.3541 6C18.5363 6 17.8008 6.4979 17.4971 7.25722L16 11H8C3.58172 11 0 14.5817 0 19V33C0 37.4183 3.58172 41 8 41H40C44.4183 41 48 37.4183 48 33V19C48 14.5817 44.4183 11 40 11H34L32.5029 7.25722C32.1992 6.4979 31.4637 6 30.6459 6H19.3541Z"/>
</mask>
<path d="M17.4971 7.25722L20.2825 8.37139V8.37139L17.4971 7.25722ZM16 11V14H18.0311L18.7854 12.1142L16 11ZM34 11L31.2146 12.1142L31.9689 14H34V11ZM32.5029 7.25722L29.7175 8.37139V8.37139L32.5029 7.25722ZM20.2825 8.37139C20.1307 8.75105 19.763 9 19.3541 9V3C17.3095 3 15.471 4.24476 14.7117 6.14305L20.2825 8.37139ZM18.7854 12.1142L20.2825 8.37139L14.7117 6.14305L13.2146 9.88583L18.7854 12.1142ZM8 14H16V8H8V14ZM3 19C3 16.2386 5.23858 14 8 14V8C1.92487 8 -3 12.9249 -3 19H3ZM3 33V19H-3V33H3ZM8 38C5.23858 38 3 35.7614 3 33H-3C-3 39.0751 1.92487 44 8 44V38ZM40 38H8V44H40V38ZM45 33C45 35.7614 42.7614 38 40 38V44C46.0751 44 51 39.0751 51 33H45ZM45 19V33H51V19H45ZM40 14C42.7614 14 45 16.2386 45 19H51C51 12.9249 46.0751 8 40 8V14ZM34 14H40V8H34V14ZM29.7175 8.37139L31.2146 12.1142L36.7854 9.88583L35.2883 6.14305L29.7175 8.37139ZM30.6459 9C30.237 9 29.8693 8.75105 29.7175 8.37139L35.2883 6.14305C34.529 4.24475 32.6905 3 30.6459 3V9ZM19.3541 9H30.6459V3H19.3541V9Z" fill="#152C5B" mask="url(#path-1-inside-1)"/>
<circle cx="25" cy="26" r="6.5" stroke="#FF498B" stroke-width="3"/>
<path d="M34 18H40" stroke="#152C5B" stroke-width="3" stroke-linecap="round" stroke-linejoin="bevel"/>
</svg>
