<svg width="48" height="48" viewBox="0 0 48 48" fill="none" xmlns="http://www.w3.org/2000/svg">
<path d="M5 36V44" stroke="#152C5B" stroke-width="3" stroke-linecap="round" stroke-linejoin="bevel"/>
<path d="M43 36V44" stroke="#152C5B" stroke-width="3" stroke-linecap="round" stroke-linejoin="bevel"/>
<path d="M7.5 10C7.5 5.30558 11.3056 1.5 16 1.5H32C36.6944 1.5 40.5 5.30558 40.5 10V24.5H7.5V10Z" stroke="#152C5B" stroke-width="3"/>
<rect x="12.5" y="18.5" width="9" height="6" rx="2.5" stroke="#FF498B" stroke-width="3"/>
<rect x="26.5" y="18.5" width="9" height="6" rx="2.5" stroke="#FF498B" stroke-width="3"/>
<mask id="path-6-inside-1" fill="white">
<path d="M0 27C0 24.7909 1.79086 23 4 23H44C46.2091 23 48 24.7909 48 27V35C48 36.1046 47.1046 37 46 37H2C0.895431 37 0 36.1046 0 35V27Z"/>
</mask>
<path d="M0 27C0 24.7909 1.79086 23 4 23H44C46.2091 23 48 24.7909 48 27V35C48 36.1046 47.1046 37 46 37H2C0.895431 37 0 36.1046 0 35V27Z" stroke="#152C5B" stroke-width="6" mask="url(#path-6-inside-1)"/>
<path d="M5 41H43" stroke="#152C5B" stroke-width="3" stroke-linecap="round" stroke-linejoin="bevel"/>
</svg>
